<svg width="12" height="11" viewBox="0 0 12 11" fill="none" xmlns="http://www.w3.org/2000/svg">
  <path d="M11.25 4.0252V3.8152C11.25 3.03112 11.25 2.63909 11.0974 2.33961C10.9632 2.07618 10.749 1.86201 10.4856 1.72779C10.1861 1.5752 9.79407 1.5752 9.01 1.5752H2.99C2.20593 1.5752 1.81389 1.5752 1.51441 1.72779C1.25099 1.86201 1.03681 2.07618 0.902591 2.33961C0.75 2.63909 0.75 3.03112 0.75 3.8152V4.0252M11.25 4.0252V7.9102C11.25 8.69427 11.25 9.08631 11.0974 9.38578C10.9632 9.64921 10.749 9.86338 10.4856 9.99761C10.1861 10.1502 9.79407 10.1502 9.01 10.1502H2.99C2.20593 10.1502 1.81389 10.1502 1.51441 9.99761C1.25099 9.86338 1.03681 9.64921 0.902591 9.38578C0.75 9.08631 0.75 8.69427 0.75 7.9102V4.0252M11.25 4.0252H0.75" stroke="currentColor" stroke-width="0.7" />
  <path d="M3.54981 0.350098L3.5498 2.8001M8.44981 0.350098L8.44981 2.8001" stroke="currentColor" stroke-width="0.7" stroke-linecap="round" />
</svg>