<svg width="16" height="18" viewBox="0 0 16 18" fill="none" xmlns="http://www.w3.org/2000/svg">
  <path d="M15 6.74925V4.97287C15 4.15975 15 3.7532 14.8418 3.44263C14.7026 3.16944 14.4805 2.94734 14.2073 2.80814C13.8967 2.6499 13.4902 2.6499 12.677 2.6499H3.32296C2.50985 2.6499 2.10329 2.6499 1.79272 2.80814C1.51954 2.94734 1.29744 3.16944 1.15824 3.44263C1 3.7532 1 4.15975 1 4.97286V6.74925M15 6.74925V14.6746C15 15.4878 15 15.8943 14.8418 16.2049C14.7026 16.4781 14.4805 16.7002 14.2073 16.8394C13.8967 16.9976 13.4902 16.9976 12.677 16.9976H3.32296C2.50985 16.9976 2.10329 16.9976 1.79272 16.8394C1.51954 16.7002 1.29744 16.4781 1.15824 16.2049C1 15.8943 1 15.4878 1 14.6747V6.74925M15 6.74925H1" stroke="currentColor" stroke-width="1.2" />
  <path d="M4.73334 0.600098L4.73334 4.69944M11.2667 0.600098L11.2667 4.69944" stroke="currentColor" stroke-width="1.2" stroke-linecap="round" />
</svg>