<svg width="42" height="42" viewBox="0 0 42 42" fill="none" xmlns="http://www.w3.org/2000/svg">
  <path d="M21 21L31.7194 28.2964C32.6769 28.9482 33.25 30.0315 33.25 31.1897V35.875C33.25 36.3582 32.8583 36.75 32.375 36.75H9.625C9.14175 36.75 8.75 36.3582 8.75 35.875V31.1897C8.75 30.0314 9.32306 28.9482 10.2806 28.2964L21 21ZM21 21L31.7194 13.7036C32.6769 13.0518 33.25 11.9686 33.25 10.8103V6.125C33.25 5.64175 32.8582 5.25 32.375 5.25H9.625C9.14175 5.25 8.75 5.64175 8.75 6.125V10.8103C8.75 11.9685 9.32306 13.0518 10.2806 13.7036L21 21Z" stroke="currentColor" stroke-width="3.5" stroke-linecap="round" stroke-linejoin="round" />
  <path d="M28 32.86V36.4875C28 36.6325 27.8825 36.75 27.7375 36.75H14.2625C14.1175 36.75 14 36.6325 14 36.4875V32.86C14 32.5583 14.1554 32.2779 14.4113 32.118L20.258 28.4637C20.712 28.18 21.288 28.18 21.742 28.4637L27.5887 32.118C27.8446 32.2779 28 32.5583 28 32.86Z" fill="currentColor" />
</svg>